<?xml version="1.0" encoding="iso-8859-1"?>
<!-- Generator: Adobe Illustrator 19.0.0, SVG Export Plug-In . SVG Version: 6.00 Build 0)  -->
<svg version="1.1" id="Layer_1" xmlns="http://www.w3.org/2000/svg" xmlns:xlink="http://www.w3.org/1999/xlink" x="0px" y="0px"
	 viewBox="0 0 512 512" style="enable-background:new 0 0 512 512;" xml:space="preserve">
<g>
	<g>
		<path d="M448.319,0H63.682c-5.77,0-10.449,4.679-10.449,10.449v491.102c0,5.77,4.679,10.449,10.449,10.449h384.636
			c5.77,0,10.449-4.679,10.449-10.449V10.449C458.768,4.679,454.089,0,448.319,0z M74.131,491.102V20.898h363.738v470.204H74.131z"
			/>
	</g>
</g>
<g>
	<g>
		<path d="M411.878,38.297H104.461c-5.77,0-10.449,4.679-10.449,10.449v69.89v34.345v221.506c0,5.771,4.678,10.45,10.449,10.45
			h32.651h242.114h0.001h32.651c5.77,0,10.449-4.679,10.449-10.449V152.98v-34.345v-69.89
			C422.327,42.976,417.648,38.297,411.878,38.297z M114.91,129.085h175.281v13.447H114.91V129.085z M368.777,364.038H147.561
			v-15.162h221.216V364.038z M401.429,364.038h-11.753v-25.612c0-5.77-4.679-10.449-10.449-10.449h-0.001h-42.14
			c2.462-1.912,4.053-4.892,4.053-8.25v-15.673c0-5.77-4.679-10.449-10.449-10.449c-5.77,0-10.449,4.679-10.449,10.449v5.224h-5.224
			c-5.77,0-10.449,4.679-10.449,10.449c0,3.358,1.59,6.338,4.053,8.25h-28.344c2.462-1.912,4.053-4.892,4.053-8.25
			c0-5.77-4.679-10.449-10.449-10.449h-35.259c-5.77,0-10.449,4.679-10.449,10.449c0,3.358,1.59,6.338,4.053,8.25h-28.344
			c2.462-1.912,4.053-4.892,4.053-8.25c0-5.77-4.679-10.449-10.449-10.449h-15.673c-5.77,0-10.449,4.679-10.449,10.449
			c0,3.358,1.59,6.338,4.053,8.25h-38.306c-5.77,0-10.449,4.679-10.449,10.449v25.612H114.91V163.429h175.281v29.032
			c0,5.77,4.679,10.449,10.449,10.449h4.325v35.919c0,5.77,4.679,10.449,10.449,10.449h4.828v14.035
			c0,5.77,4.679,10.449,10.449,10.449c5.77,0,10.449-4.679,10.449-10.449v-14.035h4.833c5.77,0,10.449-4.679,10.449-10.449v-35.919
			h4.321c5.77,0,10.449-4.679,10.449-10.449v-29.033h30.238V364.038z M315.412,182.013h-4.325V152.98v-34.345v-13.593h39.205v13.593
			v34.345v29.032h-4.321H315.412z M335.522,202.911v25.47h-9.661v-25.47H335.522z M401.428,142.531H371.19v-13.447h30.238V142.531z
			 M401.429,108.187H371.19V94.594c0-5.77-4.679-10.449-10.449-10.449h-60.102c-5.77,0-10.449,4.679-10.449,10.449v13.593H114.91
			V59.195h286.519V108.187z"/>
	</g>
</g>
<g>
</g>
<g>
</g>
<g>
</g>
<g>
</g>
<g>
</g>
<g>
</g>
<g>
</g>
<g>
</g>
<g>
</g>
<g>
</g>
<g>
</g>
<g>
</g>
<g>
</g>
<g>
</g>
<g>
</g>
</svg>
