<?xml version="1.0" encoding="iso-8859-1"?>
<!-- Generator: Adobe Illustrator 19.0.0, SVG Export Plug-In . SVG Version: 6.00 Build 0)  -->
<svg version="1.1" id="Capa_1" xmlns="http://www.w3.org/2000/svg" xmlns:xlink="http://www.w3.org/1999/xlink" x="0px" y="0px"
	 viewBox="0 0 489.85 489.85" style="enable-background:new 0 0 489.85 489.85;" xml:space="preserve">
<g>
	<g>
		<path d="M336.988,70.725c-8.3-8.3-20.8-8.3-29.1,0s-8.3,20.8,0,29.1l82.2,82.2c8,8,20,8.6,29.1,0c8.6-8.1,8.3-20.8,0-29.1
			L336.988,70.725z"/>
		<path d="M482.588,126.925l-120.7-120.7c-8.3-8.3-20.8-8.3-29.1,0c-8.3,8.3-8.3,20.8,0,29.1l120.7,121.7c10.7,10.7,24.4,5.2,29.1-1
			C490.888,147.725,490.888,135.225,482.588,126.925z"/>
		<path d="M260.488,258.525l44.3-44.3c2.2,0.4,4.4,0.6,6.7,0.6c20.3,0,36.8-16.5,36.8-36.8s-16.5-36.8-36.8-36.8
			s-36.8,16.5-36.8,36.8c0,2.5,0.2,4.9,0.7,7.2l-44.1,44.1l-134.6-134.6c-8.3-8.3-20.8-8.3-29.1,0c-100,100-77,249.7,1,327.7
			c81.2,81.2,228.4,98.2,326.7,0c4.2-4.2,12.1-17.1,0-29.1L260.488,258.525z M96.688,393.225c-74.5-74.5-71.8-196.7-13.6-254.8
			l268.4,268.4C301.888,456.525,178.188,474.725,96.688,393.225z"/>
	</g>
</g>
<g>
</g>
<g>
</g>
<g>
</g>
<g>
</g>
<g>
</g>
<g>
</g>
<g>
</g>
<g>
</g>
<g>
</g>
<g>
</g>
<g>
</g>
<g>
</g>
<g>
</g>
<g>
</g>
<g>
</g>
</svg>
