<?xml version='1.0' encoding='utf-8'?>
<!DOCTYPE svg PUBLIC '-//W3C//DTD SVG 1.1//EN' 'http://www.w3.org/Graphics/SVG/1.1/DTD/svg11.dtd'>
<svg version="1.1" xmlns="http://www.w3.org/2000/svg" viewBox="0 0 512 512" xmlns:xlink="http://www.w3.org/1999/xlink" enable-background="new 0 0 512 512">
  <g>
    <g>
      <path d="m119.1,294.6h9.1v21.1c0,11.3 9.1,20.4 20.4,20.4s20.4-9.1 20.4-20.3v-21.1h9.1c11.3,0 20.4-9.1 20.4-20.4 0-11.3-9.1-20.4-20.4-20.4h-9.1v-139.5c0-11.3-9.1-20.4-20.4-20.4s-20.4,9.1-20.4,20.4v139.4h-9.1c-11.3,0-20.4,9.1-20.4,20.4 1.42109e-14,11.3 9.1,20.4 20.4,20.4z"/>
      <path d="m226.5,186.6h9.1v129.1c0,11.3 9.1,20.4 20.4,20.4s20.4-9.1 20.4-20.4v-129.1h9.1c11.3,0 20.4-9.1 20.4-20.4s-9.1-20.4-20.4-20.4h-9.1v-31.4c0-11.3-9.1-20.4-20.4-20.4s-20.4,9.1-20.4,20.4v31.4h-9.1c-11.3,0-20.4,9.1-20.4,20.4s9.1,20.4 20.4,20.4z"/>
      <path d="m333.9,245.5h9.1v70.3c0,11.3 9.1,20.4 20.4,20.4 11.3,0 20.4-9.1 20.4-20.4v-70.3h9.1c11.3,0 20.4-9.1 20.4-20.4s-9.1-20.4-20.4-20.4h-9.1v-90.2c0-11.3-9.1-20.4-20.4-20.4-11.3,0-20.4,9.1-20.4,20.4v90.2h-9.1c-11.3,0-20.4,9.1-20.4,20.4s9.1,20.4 20.4,20.4z"/>
      <path d="M480.6,11H31.4C20.2,11,11,20.1,11,31.4v367.4c0,11.3,9.1,20.4,20.4,20.4h204.1v41h-74c-11.3,0-20.4,9.1-20.4,20.4    s9.1,20.4,20.4,20.4h188.9c11.3,0,20.4-9.1,20.4-20.4s-9.1-20.4-20.4-20.4h-74v-41h204.1c11.3,0,20.4-9.1,20.4-20.4V31.4    C501,20.1,491.8,11,480.6,11z M460.1,378.4H51.9V51.8h408.3V378.4z"/>
    </g>
  </g>
</svg>
